<svg xmlns="http://www.w3.org/2000/svg" xmlns:xlink="http://www.w3.org/1999/xlink" width="500" zoomAndPan="magnify" viewBox="0 0 375 374.999991" height="500" preserveAspectRatio="xMidYMid meet" version="1.0"><defs><clipPath id="579aaf1b12"><path d="M 7.28125 4.21875 L 359.617188 4.21875 L 359.617188 356.761719 L 7.28125 356.761719 Z M 7.28125 4.21875 " clip-rule="nonzero"/></clipPath><clipPath id="81115d3d7d"><path d="M 183.449219 4.21875 C 86.15625 4.21875 7.28125 83.140625 7.28125 180.492188 C 7.28125 277.84375 86.15625 356.761719 183.449219 356.761719 C 280.746094 356.761719 359.617188 277.84375 359.617188 180.492188 C 359.617188 83.140625 280.746094 4.21875 183.449219 4.21875 " clip-rule="nonzero"/></clipPath><clipPath id="c466b08010"><path d="M 167.082031 91 L 329.082031 91 L 329.082031 274.742188 L 167.082031 274.742188 Z M 167.082031 91 " clip-rule="nonzero"/></clipPath></defs><g clip-path="url(#579aaf1b12)"><g clip-path="url(#81115d3d7d)"><path fill="#000000" d="M 7.28125 4.21875 L 359.617188 4.21875 L 359.617188 356.761719 L 7.28125 356.761719 Z M 7.28125 4.21875 " fill-opacity="1" fill-rule="nonzero"/></g></g><g clip-path="url(#c466b08010)"><path fill="#ffffff" d="M 246.273438 183.386719 C 311.925781 177.792969 309.367188 103.707031 329.082031 96.082031 C 297.871094 86.554688 211.070312 87.507812 212.558594 140.289062 C 208.625 131.476562 213.378906 115.015625 213.378906 115.015625 C 190.285156 133.011719 180.105469 164.09375 185.640625 205.210938 C 174.378906 232.503906 168.378906 256.5625 167.082031 274.675781 C 174.734375 247.472656 207.382812 148.972656 284.722656 124.921875 C 242.625 146.878906 215.960938 190.402344 199.921875 227.878906 C 248.832031 222.730469 272.347656 201.742188 286.074219 177.859375 C 286.074219 177.859375 266.304688 190.285156 246.273438 183.386719 Z M 246.273438 183.386719 " fill-opacity="1" fill-rule="nonzero"/></g><path fill="#ffffff" d="M 72.699219 91.972656 C 77.957031 91.972656 81.460938 93.726562 84.964844 97.234375 L 155.0625 167.375 C 162.074219 174.386719 162.074219 184.910156 155.0625 191.921875 L 84.964844 262.0625 C 77.957031 269.078125 67.441406 269.078125 60.429688 262.0625 C 53.421875 255.050781 53.421875 244.527344 60.429688 237.515625 L 118.261719 179.648438 L 60.429688 121.78125 C 53.421875 114.769531 53.421875 104.246094 60.429688 97.234375 C 63.9375 93.726562 67.441406 91.972656 72.699219 91.972656 Z M 72.699219 91.972656 " fill-opacity="1" fill-rule="nonzero"/></svg>